<svg xmlns="http://www.w3.org/2000/svg" width="2000" height="4162" viewBox="0 0 2000 4162">
  <g fill="none" fill-rule="evenodd" stroke="black" opacity="0.05">
    <path d="M1337.91855 152.734035L997.16514-103.031729C979.230752 48.9450302 940.37291 124.933412 880.591607 124.933412 820.810312 124.933412 778.963406 86.0125337 755.05088 8.17078101 743.094621-95.6182287 755.05088-162.33973 790.919665-191.993733 826.788442-221.647736 832.766571-164.193106 808.854053-19.6298466 778.963406 95.2794096 725.160232 174.974537 647.444549 219.455542 530.871016 286.177043 432.231871 197.215039 423.264677 124.933412 414.297483 52.6517806 396.363094-130.832352 647.444549-258.715235 898.526003-386.598117 1176.50904-458.879749 1589-470L1337.91855 152.734035zM502 3005C573.174604 3038.27272 651.84127 3051.21212 738 3043.81818 648.095239 3054.90909 582.539682 3082.63636 541.333331 3127L502 3005z"/>
    <path d="M-114,4016.74438 L2117.23914,2643.51384 C2146.59755,2580.50461 2092.77379,2549 1955.76788,2549 C1750.25902,2549 1397.9581,2704.66986 1148.41162,2765.82587 C982.047295,2806.59655 874.243422,2742.98793 825,2575 C1062.33333,2477 1135.88573,2520.22329 1045.65719,2704.66986 C910.314371,2981.33972 2286.04999,3082.72523 2117.23914,3555.29445 C2004.69857,3870.34059 1260.95219,4024.15724 -114,4016.74438 Z"/>
    <path d="M2097.76527 4122.4992C1554.81994 4293.00795 1198.36453 4222.58043 1028.39904 3911.21662 773.450793 3444.17092 2147.33854 2960.44502 2239.40318 3155.0474 2331.46782 3349.64977 1439.14898 3661.01357 858.433541 3566.49242 277.718106 3471.97126 157.325882 3049.40611 157.325882 2938.20475 72.3431341 3021.60577-62.2128804 3088.32658-133.031838 3043.84604-203.850796 2999.3655-55.1309852 2793.64299 44.0155533 2704.6819 143.162092 2615.72081 249.39052 2615.72081 192.735358 2704.6819 136.080191 2793.64299-40.9671948 2977.12523-189.687006 2915.96448-338.40681 2854.80373-210.932691 2643.52115 86.5069244 2549L2097.76527 4122.4992zM1490 2224L1699.28571 2346 1699.28571 2240.63636C1796.95238 2310.87879 1922.52381 2346 2076 2346M-84 1992L33 2301 125.285714 2008.63636C185.431926 2051.89386 344.688106 1786.38183 426 1803 470.505133 1812.09576 312 2434 740 2335 752.430038 2332.12483 494.771255 2114 502 2114M1532.30146 1837.73404L1745.78201 1581.96827C1757.01783 1733.94503 1781.3621 1809.93341 1818.81483 1809.93341 1856.26756 1809.93341 1882.48446 1771.01253 1897.46556 1693.17078 1904.9561 1589.38177 1897.46556 1522.66027 1874.99392 1493.00627 1852.52228 1463.35226 1848.77701 1520.80689 1863.7581 1665.37015 1882.48446 1780.27941 1916.19192 1859.97454 1964.88047 1904.45554 2037.91329 1971.17704 2099.71029 1882.21504 2105.3282 1809.93341 2110.94611 1737.65178 2122.18192 1554.16765 1964.88047 1426.28477 1807.57901 1298.40188 1633.42382 1226.12025 1375 1215"/>
    <path d="M1920.94397,2142.74449 C867.763909,2150.15419 298.072205,1996.40305 211.868855,1681.4911 C82.5638292,1209.12317 -335,857.788435 -335,918.918403 C-335,959.671715 170.844556,1157.20753 1182.53367,1511.52585 C1076.84456,1206.81799 968.153375,1022.85216 856.460125,959.62836 C790.896642,922.516249 2360.51217,991.481665 2383,1054.46406"/>
    <path d="M83.6739294,1317.4992 C514.682968,1488.00795 797.649777,1417.58043 932.574343,1106.21662 C1134.9612,639.170924 44.3209299,155.445021 -28.7632117,350.047399 C-101.847354,544.649772 606.506633,856.013569 1067.49891,761.492417 C1528.49119,666.971264 1624.06276,244.406105 1624.06276,133.20475 C1691.52505,216.60577 1798.34033,283.326582 1854.5589,238.846037 C1910.77747,194.365497 1792.71847,-11.357014 1714.01247,-100.3181 C1635.30647,-189.279186 1550.97862,-189.279186 1595.95348,-100.3181 C1640.92834,-11.357014 1781.47476,172.125225 1899.53376,110.964479 C2017.59276,49.8037324 1916.39933,-161.478846 1680.28133,-256"/>
  </g>
</svg>
