<svg xmlns="http://www.w3.org/2000/svg" viewBox="0 0 600 324">
  <g fill="none" fill-rule="evenodd">
    <rect width="600" height="324" fill="#FFDFDF"/>
    <path class="o-anim-line-dash" stroke="#0035FF" stroke-width="32" d="M-50.2256483,53.1179581 L-2.44914883,18.7829388 C8.70938978,10.7637527 23.7419069,10.7637527 34.9004455,18.7829388 L64.0021478,39.6971439 C75.1606865,47.71633 90.1932036,47.71633 101.351742,39.6971439 L130.453445,18.7829388 C141.611983,10.7637527 156.6445,10.7637527 167.803039,18.7829388 L196.904741,39.6971439 C208.06328,47.71633 223.095797,47.71633 234.254336,39.6971439 L263.356038,18.7829388 C274.514576,10.7637527 289.547094,10.7637527 300.705632,18.7829388 L329.807335,39.6971439 C340.965873,47.71633 355.99839,47.71633 367.156929,39.6971439 L396.258631,18.7829388 C407.41717,10.7637527 422.449687,10.7637527 433.608226,18.7829388 L462.709928,39.6971439 C473.868467,47.71633 488.900984,47.71633 500.059522,39.6971439 L529.161225,18.7829388 C540.319763,10.7637527 555.35228,10.7637527 566.510819,18.7829388 L614.287318,53.1179581" stroke-linecap="round" stroke-linejoin="round"/>
    <path class="o-anim-line-dash u-delay-2" stroke="#000000" stroke-width="32" d="M282.030835,5.3621246 L329.807335,39.6971439 C340.965873,47.71633 355.99839,47.71633 367.156929,39.6971439 L396.258631,18.7829388 C407.41717,10.7637527 422.449687,10.7637527 433.608226,18.7829388 L462.709928,39.6971439 C473.868467,47.71633 488.900984,47.71633 500.059522,39.6971439 L529.161225,18.7829388 C540.319763,10.7637527 555.35228,10.7637527 566.510819,18.7829388 L614.287318,53.1179581" stroke-linecap="round" stroke-linejoin="round"/>
    <path class="o-anim-line-dash u-delay-3" stroke="#FFC13C" stroke-width="32" d="M-50.2256483,23.1179581 L-2.44914883,-11.2170612 C8.70938978,-19.2362473 23.7419069,-19.2362473 34.9004455,-11.2170612 L64.0021478,9.69714394 C75.1606865,17.71633 90.1932036,17.71633 101.351742,9.69714394 L130.453445,-11.2170612 C141.611983,-19.2362473 156.6445,-19.2362473 167.803039,-11.2170612 L196.904741,9.69714394 C208.06328,17.71633 223.095797,17.71633 234.254336,9.69714394 L263.356038,-11.2170612 C274.514576,-19.2362473 289.547094,-19.2362473 300.705632,-11.2170612 L329.807335,9.69714394 C340.965873,17.71633 355.99839,17.71633 367.156929,9.69714394 L396.258631,-11.2170612 C407.41717,-19.2362473 422.449687,-19.2362473 433.608226,-11.2170612 L462.709928,9.69714394 C473.868467,17.71633 488.900984,17.71633 500.059522,9.69714394 L529.161225,-11.2170612 C540.319763,-19.2362473 555.35228,-19.2362473 566.510819,-11.2170612 L614.287318,23.1179581" stroke-linecap="round" stroke-linejoin="round"/>
    <path class="o-anim-line-dash u-delay-1" stroke="#FF3C3C" stroke-width="2" d="M-50.2256483,23.1179581 L-2.44914883,-11.2170612 C8.70938978,-19.2362473 23.7419069,-19.2362473 34.9004455,-11.2170612 L64.0021478,9.69714394 C75.1606865,17.71633 90.1932036,17.71633 101.351742,9.69714394 L130.453445,-11.2170612 C141.611983,-19.2362473 156.6445,-19.2362473 167.803039,-11.2170612 L196.904741,9.69714394 C208.06328,17.71633 223.095797,17.71633 234.254336,9.69714394 L263.356038,-11.2170612 C274.514576,-19.2362473 289.547094,-19.2362473 300.705632,-11.2170612 L329.807335,9.69714394 C340.965873,17.71633 355.99839,17.71633 367.156929,9.69714394 L396.258631,-11.2170612 C407.41717,-19.2362473 422.449687,-19.2362473 433.608226,-11.2170612 L462.709928,9.69714394 C473.868467,17.71633 488.900984,17.71633 500.059522,9.69714394 L529.161225,-11.2170612 C540.319763,-19.2362473 555.35228,-19.2362473 566.510819,-11.2170612 L614.287318,23.1179581" stroke-linecap="round" stroke-linejoin="round"/>
    <path class="o-anim-line-dash u-delay-3" stroke="#0035FF" stroke-width="32" d="M-50.2256483,153.117958 L-2.44914883,118.782939 C8.70938978,110.763753 23.7419069,110.763753 34.9004455,118.782939 L64.0021478,139.697144 C75.1606865,147.71633 90.1932036,147.71633 101.351742,139.697144 L130.453445,118.782939 C141.611983,110.763753 156.6445,110.763753 167.803039,118.782939 L196.904741,139.697144 C208.06328,147.71633 223.095797,147.71633 234.254336,139.697144 L263.356038,118.782939 C274.514576,110.763753 289.547094,110.763753 300.705632,118.782939 L329.807335,139.697144 C340.965873,147.71633 355.99839,147.71633 367.156929,139.697144 L396.258631,118.782939 C407.41717,110.763753 422.449687,110.763753 433.608226,118.782939 L462.709928,139.697144 C473.868467,147.71633 488.900984,147.71633 500.059522,139.697144 L529.161225,118.782939 C540.319763,110.763753 555.35228,110.763753 566.510819,118.782939 L614.287318,153.117958" stroke-linecap="round" stroke-linejoin="round"/>
    <path class="o-anim-line-dash" stroke="#000000" stroke-width="32" d="M99.014111,141.2371 L130.258631,118.782939 C141.41717,110.763753 156.449687,110.763753 167.608226,118.782939 L196.709928,139.697144 C207.868467,147.71633 222.900984,147.71633 234.059522,139.697144 L281.836022,105.362125" stroke-linecap="round" stroke-linejoin="round"/>
    <path class="o-anim-line-dash" stroke="#FFC13C" stroke-width="32" d="M-50.2256483,123.117958 L-2.44914883,88.7829388 C8.70938978,80.7637527 23.7419069,80.7637527 34.9004455,88.7829388 L64.0021478,109.697144 C75.1606865,117.71633 90.1932036,117.71633 101.351742,109.697144 L130.453445,88.7829388 C141.611983,80.7637527 156.6445,80.7637527 167.803039,88.7829388 L196.904741,109.697144 C208.06328,117.71633 223.095797,117.71633 234.254336,109.697144 L263.356038,88.7829388 C274.514576,80.7637527 289.547094,80.7637527 300.705632,88.7829388 L329.807335,109.697144 C340.965873,117.71633 355.99839,117.71633 367.156929,109.697144 L396.258631,88.7829388 C407.41717,80.7637527 422.449687,80.7637527 433.608226,88.7829388 L462.709928,109.697144 C473.868467,117.71633 488.900984,117.71633 500.059522,109.697144 L529.161225,88.7829388 C540.319763,80.7637527 555.35228,80.7637527 566.510819,88.7829388 L614.287318,123.117958" stroke-linecap="round" stroke-linejoin="round"/>
    <path class="o-anim-line-dash u-delay-1" stroke="#4021FF" stroke-width="2" d="M-50.2256483,123.117958 L-2.44914883,88.7829388 C8.70938978,80.7637527 23.7419069,80.7637527 34.9004455,88.7829388 L64.0021478,109.697144 C75.1606865,117.71633 90.1932036,117.71633 101.351742,109.697144 L130.453445,88.7829388 C141.611983,80.7637527 156.6445,80.7637527 167.803039,88.7829388 L196.904741,109.697144 C208.06328,117.71633 223.095797,117.71633 234.254336,109.697144 L263.356038,88.7829388 C274.514576,80.7637527 289.547094,80.7637527 300.705632,88.7829388 L329.807335,109.697144 C340.965873,117.71633 355.99839,117.71633 367.156929,109.697144 L396.258631,88.7829388 C407.41717,80.7637527 422.449687,80.7637527 433.608226,88.7829388 L462.709928,109.697144 C473.868467,117.71633 488.900984,117.71633 500.059522,109.697144 L529.161225,88.7829388 C540.319763,80.7637527 555.35228,80.7637527 566.510819,88.7829388 L614.287318,123.117958" stroke-linecap="round" stroke-linejoin="round"/>
    <path class="o-anim-line-dash" stroke="#0035FF" stroke-width="32" d="M-50.2256483,253.117958 L-2.44914883,218.782939 C8.70938978,210.763753 23.7419069,210.763753 34.9004455,218.782939 L64.0021478,239.697144 C75.1606865,247.71633 90.1932036,247.71633 101.351742,239.697144 L130.453445,218.782939 C141.611983,210.763753 156.6445,210.763753 167.803039,218.782939 L196.904741,239.697144 C208.06328,247.71633 223.095797,247.71633 234.254336,239.697144 L263.356038,218.782939 C274.514576,210.763753 289.547094,210.763753 300.705632,218.782939 L329.807335,239.697144 C340.965873,247.71633 355.99839,247.71633 367.156929,239.697144 L396.258631,218.782939 C407.41717,210.763753 422.449687,210.763753 433.608226,218.782939 L462.709928,239.697144 C473.868467,247.71633 488.900984,247.71633 500.059522,239.697144 L529.161225,218.782939 C540.319763,210.763753 555.35228,210.763753 566.510819,218.782939 L614.287318,253.117958" stroke-linecap="round" stroke-linejoin="round"/>
    <path class="o-anim-line-dash" stroke="#000000" stroke-width="32" d="M-50.2256483,253.117958 L-2.44914883,218.782939 C8.70938978,210.763753 23.7419069,210.763753 34.9004455,218.782939 L64.0021478,239.697144 C75.1606865,247.71633 90.1932036,247.71633 101.351742,239.697144 L130.453445,218.782939 C141.611983,210.763753 156.6445,210.763753 167.803039,218.782939 L196.904741,239.697144 C208.06328,247.71633 223.095797,247.71633 234.254336,239.697144 L263.356038,218.782939 C274.514576,210.763753 289.547094,210.763753 300.705632,218.782939 L329.807335,239.697144 C340.965873,247.71633 355.99839,247.71633 367.156929,239.697144 L396.258631,218.782939 C407.41717,210.763753 422.449687,210.763753 433.608226,218.782939 L462.709928,239.697144 C473.868467,247.71633 488.900984,247.71633 500.059522,239.697144 L529.161225,218.782939 C540.319763,210.763753 555.35228,210.763753 566.510819,218.782939 L614.287318,253.117958" stroke-linecap="round" stroke-linejoin="round"/>
    <path class="o-anim-line-dash u-delay-2" stroke="#FFC13C" stroke-width="32" d="M-50.2256483,223.117958 L-2.44914883,188.782939 C8.70938978,180.763753 23.7419069,180.763753 34.9004455,188.782939 L64.0021478,209.697144 C75.1606865,217.71633 90.1932036,217.71633 101.351742,209.697144 L130.453445,188.782939 C141.611983,180.763753 156.6445,180.763753 167.803039,188.782939 L196.904741,209.697144 C208.06328,217.71633 223.095797,217.71633 234.254336,209.697144 L263.356038,188.782939 C274.514576,180.763753 289.547094,180.763753 300.705632,188.782939 L329.807335,209.697144 C340.965873,217.71633 355.99839,217.71633 367.156929,209.697144 L396.258631,188.782939 C407.41717,180.763753 422.449687,180.763753 433.608226,188.782939 L462.709928,209.697144 C473.868467,217.71633 488.900984,217.71633 500.059522,209.697144 L529.161225,188.782939 C540.319763,180.763753 555.35228,180.763753 566.510819,188.782939 L614.287318,223.117958" stroke-linecap="round" stroke-linejoin="round"/>
    <path class="o-anim-line-dash" stroke="#FF3C3C" stroke-width="2" d="M-50.2256483,223.117958 L-2.44914883,188.782939 C8.70938978,180.763753 23.7419069,180.763753 34.9004455,188.782939 L64.0021478,209.697144 C75.1606865,217.71633 90.1932036,217.71633 101.351742,209.697144 L130.453445,188.782939 C141.611983,180.763753 156.6445,180.763753 167.803039,188.782939 L196.904741,209.697144 C208.06328,217.71633 223.095797,217.71633 234.254336,209.697144 L263.356038,188.782939 C274.514576,180.763753 289.547094,180.763753 300.705632,188.782939 L329.807335,209.697144 C340.965873,217.71633 355.99839,217.71633 367.156929,209.697144 L396.258631,188.782939 C407.41717,180.763753 422.449687,180.763753 433.608226,188.782939 L462.709928,209.697144 C473.868467,217.71633 488.900984,217.71633 500.059522,209.697144 L529.161225,188.782939 C540.319763,180.763753 555.35228,180.763753 566.510819,188.782939 L614.287318,223.117958" stroke-linecap="round" stroke-linejoin="round"/>
    <path class="o-anim-line-dash" stroke="#0035FF" stroke-width="32" d="M-50.2256483,353.117958 L-2.44914883,318.782939 C8.70938978,310.763753 23.7419069,310.763753 34.9004455,318.782939 L64.0021478,339.697144 C75.1606865,347.71633 90.1932036,347.71633 101.351742,339.697144 L130.453445,318.782939 C141.611983,310.763753 156.6445,310.763753 167.803039,318.782939 L196.904741,339.697144 C208.06328,347.71633 223.095797,347.71633 234.254336,339.697144 L263.356038,318.782939 C274.514576,310.763753 289.547094,310.763753 300.705632,318.782939 L329.807335,339.697144 C340.965873,347.71633 355.99839,347.71633 367.156929,339.697144 L396.258631,318.782939 C407.41717,310.763753 422.449687,310.763753 433.608226,318.782939 L462.709928,339.697144 C473.868467,347.71633 488.900984,347.71633 500.059522,339.697144 L529.161225,318.782939 C540.319763,310.763753 555.35228,310.763753 566.510819,318.782939 L614.287318,353.117958" stroke-linecap="round" stroke-linejoin="round"/>
    <path class="o-anim-line-dash" stroke="#000000" stroke-width="32" d="M282.030835,305.362125 L329.807335,339.697144 C340.965873,347.71633 355.99839,347.71633 367.156929,339.697144 L396.258631,318.782939 C407.41717,310.763753 422.449687,310.763753 433.608226,318.782939 L462.709928,339.697144 C473.868467,347.71633 488.900984,347.71633 500.059522,339.697144 L529.161225,318.782939 C540.319763,310.763753 555.35228,310.763753 566.510819,318.782939 L614.287318,353.117958" stroke-linecap="round" stroke-linejoin="round"/>
    <path class="o-anim-line-dash u-delay-1" stroke="#FFC13C" stroke-width="32" d="M-50.2256483,323.117958 L-2.44914883,288.782939 C8.70938978,280.763753 23.7419069,280.763753 34.9004455,288.782939 L64.0021478,309.697144 C75.1606865,317.71633 90.1932036,317.71633 101.351742,309.697144 L130.453445,288.782939 C141.611983,280.763753 156.6445,280.763753 167.803039,288.782939 L196.904741,309.697144 C208.06328,317.71633 223.095797,317.71633 234.254336,309.697144 L263.356038,288.782939 C274.514576,280.763753 289.547094,280.763753 300.705632,288.782939 L329.807335,309.697144 C340.965873,317.71633 355.99839,317.71633 367.156929,309.697144 L396.258631,288.782939 C407.41717,280.763753 422.449687,280.763753 433.608226,288.782939 L462.709928,309.697144 C473.868467,317.71633 488.900984,317.71633 500.059522,309.697144 L529.161225,288.782939 C540.319763,280.763753 555.35228,280.763753 566.510819,288.782939 L614.287318,323.117958" stroke-linecap="round" stroke-linejoin="round"/>
    <path class="o-anim-line-dash" stroke="#4021FF" stroke-width="2" d="M-50.2256483,323.117958 L-2.44914883,288.782939 C8.70938978,280.763753 23.7419069,280.763753 34.9004455,288.782939 L64.0021478,309.697144 C75.1606865,317.71633 90.1932036,317.71633 101.351742,309.697144 L130.453445,288.782939 C141.611983,280.763753 156.6445,280.763753 167.803039,288.782939 L196.904741,309.697144 C208.06328,317.71633 223.095797,317.71633 234.254336,309.697144 L263.356038,288.782939 C274.514576,280.763753 289.547094,280.763753 300.705632,288.782939 L329.807335,309.697144 C340.965873,317.71633 355.99839,317.71633 367.156929,309.697144 L396.258631,288.782939 C407.41717,280.763753 422.449687,280.763753 433.608226,288.782939 L462.709928,309.697144 C473.868467,317.71633 488.900984,317.71633 500.059522,309.697144 L529.161225,288.782939 C540.319763,280.763753 555.35228,280.763753 566.510819,288.782939 L614.287318,323.117958" stroke-linecap="round" stroke-linejoin="round"/>
  </g>
</svg>
