<svg xmlns="http://www.w3.org/2000/svg" width="30" height="30" viewBox="0 0 70 70">
  <path fill="currentColor" d="M35,70 C15.6700338,70 0,54.3299662 0,35 C0,15.6700338 15.6700338,0 35,0 C54.3299662,0 70,15.6700338 70,35 C70,54.3299662 54.3299662,70 35,70 Z M35,7 L35,63 C50.463973,63 63,50.463973 63,35 C63,19.536027 50.463973,7 35,7 Z M29.453125,42.5 L19.75,42.5 L19.75,23 L14.3125,23 L14.3125,47 L29.453125,47 L29.453125,42.5 Z M56.828125,42.5 L56.828125,47 L41.6875,47 L41.6875,23 L47.125,23 L47.125,42.5 L56.828125,42.5 Z"/>
</svg>
