<svg xmlns="http://www.w3.org/2000/svg" width="362" height="622" viewBox="0 0 362 622" preserveAspectRatio="xMinYMax meet">
  <path fill="black" fill-rule="evenodd" d="M254.625769,63.5978729 C307.369135,105.056467 345.508338,164.091242 354.616602,232.122161 C358.750013,253.114738 360.92286,274.342896 361.303956,295.520569 C363.173064,365.244921 344.670895,436.055129 309.475475,495.936307 C297.689059,515.830427 283.900122,534.341989 268.160869,550.875621 C236.684113,583.942415 197.414034,609.099123 150.793037,621.591182 C140.097792,597.410374 130.32335,572.952733 121.867093,548.190806 C117.12181,530.893758 109.391898,516.031464 106.436409,498.008365 C77.1479891,332.757997 69.7795062,165.397203 0.751354261,12.6765644 L33.9683998,3.77608388 C106.858608,-8.20766352 182.312853,12.2328786 241.918781,54.1473311 C243.6134,55.3389748 246.295209,55.5479756 247.963785,56.7740819 C250.550098,58.6745615 252.104618,61.6161375 254.625769,63.5978729 Z"/>
</svg>
