<svg xmlns="http://www.w3.org/2000/svg" width="484" height="560" viewBox="0 0 484 560" preserveAspectRatio="xMaxYMax meet">
  <path fill="black" fill-rule="evenodd" d="M340,516.065122 C286.354661,542.712712 227.247607,558.090441 170.507152,560 C136.158406,560 106.961984,534.279404 79.7474716,513.203947 C66.1196097,501.377616 53.8296327,488.196669 43.2021253,473.836002 C21.9488457,445.114669 7.35062974,411.677894 2.19831587,374.811706 C2.19831587,367.95288 -1.23655669,359.379349 0.480884606,352.520523 C-0.377831028,334.087428 0.480884606,315.760647 2.81659434,297.622482 C9.82030349,243.207988 30.1066693,190.480766 57.156307,141.611633 C69.178366,121.035156 81.200425,102.173385 96.6573566,83.3116146 C113.831729,64.4498432 129.290376,49.0140564 149.915077,33.5508336 C187.97472,7.00318316 227.260195,-2.42966153 265.449436,0.518910663 C291.023697,2.4934866 316.10634,10.0206384 340,21.6788281 C412.666667,49.226276 459,122.666667 479,242 C499,361.333333 452.666667,452.688374 340,516.065122 Z"/>
</svg>
