<svg xmlns="http://www.w3.org/2000/svg" width="304" height="514" viewBox="0 0 304 514" preserveAspectRatio="xMaxYMax meet">
  <path fill="black" fill-rule="evenodd" d="M224.951564,501.302304 C199.263534,503.494184 171.785834,507.312679 140.205864,513.544097 C140.205864,499.410361 105.33624,370.705915 35.5969917,127.430759 C34.8642098,124.874557 33.1275781,122.305706 32.3870966,119.724205 C31.9750135,118.287581 32.561738,116.84704 32.1472703,115.402582 C25.4679083,92.124389 14.7521516,54.9179149 -5.68434189e-14,3.7831599 C19.887444,3.7831599 56.2574453,3.7831599 109.110004,3.7831599 C124.853317,3.7831599 147.905467,2.66106557 178.266454,0.416876904 C200.412128,63.3659301 216.100614,108.59735 225.331911,136.111137 C227.464943,142.468619 226.554277,136.732115 228.599912,142.901625 C229.194484,144.694817 230.089972,148.6985 231.092251,152.136176 C233.235394,159.48685 235.866807,167.82182 237.088616,171.549585 C280.87006,305.127718 293,386 303.414004,432.442851 C301.679994,470.050719 302.433984,497.821282 302.433984,497.821282 C276.452454,497.836468 250.641284,499.112112 224.951564,501.302304 Z"/>
</svg>
