<svg width="412" height="318" viewBox="0 0 412 318" fill="none" xmlns="http://www.w3.org/2000/svg" stroke="currentColor" stroke-width="6" stroke-linejoin="round" stroke-linecap="round">
<path d="M3 27C3 13.7451 13.7452 3 27 3H385C398.255 3 409 13.7452 409 27V61.3072V291C409 304.255 398.255 315 385 315H27C13.7452 315 3 304.255 3 291V61.3072V27Z"/>
<path d="M103 170.5V146.5C103 137.94 109.94 131 118.5 131C127.06 131 134 137.94 134 146.5V170.5C134 179.06 127.06 186 118.5 186C109.94 186 103 179.06 103 170.5Z" fill="currentColor"/>
<path d="M278 170.5V146.5C278 137.94 284.94 131 293.5 131C302.06 131 309 137.94 309 146.5V170.5C309 179.06 302.06 186 293.5 186C284.94 186 278 179.06 278 170.5Z" fill="currentColor"/>
<path d="M32 44C38.6274 44 44 38.6274 44 32C44 25.3726 38.6274 20 32 20C25.3726 20 20 25.3726 20 32C20 38.6274 25.3726 44 32 44Z"/>
<path d="M72 44C78.6274 44 84 38.6274 84 32C84 25.3726 78.6274 20 72 20C65.3726 20 60 25.3726 60 32C60 38.6274 65.3726 44 72 44Z"/>
<path d="M112 44C118.627 44 124 38.6274 124 32C124 25.3726 118.627 20 112 20C105.373 20 100 25.3726 100 32C100 38.6274 105.373 44 112 44Z"/>
<circle cx="206" cy="237" r="14"/>
</svg>
