<?xml version="1.0" standalone="no"?>
<!DOCTYPE svg PUBLIC "-//W3C//DTD SVG 20010904//EN"
 "http://www.w3.org/TR/2001/REC-SVG-20010904/DTD/svg10.dtd">
<svg version="1.0" xmlns="http://www.w3.org/2000/svg"
 width="560.000000pt" height="560.000000pt" viewBox="0 0 560.000000 560.000000"
 preserveAspectRatio="xMidYMid meet">
<metadata>
Created by potrace 1.11, written by Peter Selinger 2001-2013
</metadata>
<g transform="translate(0.000000,560.000000) scale(0.100000,-0.100000)"
fill="#000000" stroke="none">
<path d="M2619 5596 c-2 -2 -40 -6 -84 -10 -44 -3 -91 -8 -105 -11 -14 -2 -68
-11 -120 -20 -499 -84 -981 -318 -1370 -664 -521 -465 -843 -1089 -924 -1791
-13 -114 -14 -497 -2 -590 16 -119 26 -188 31 -215 99 -511 326 -977 659
-1349 92 -103 163 -173 297 -291 196 -174 537 -372 817 -476 144 -54 251 -85
377 -113 98 -21 122 -25 180 -32 28 -4 52 -8 55 -10 4 -1 49 -6 100 -11 175
-14 529 -8 640 12 14 2 68 11 120 20 474 79 965 311 1330 629 515 448 836
1021 945 1687 40 243 42 595 6 847 -12 78 -56 288 -71 337 -5 17 -21 68 -36
115 -14 47 -32 99 -39 115 -71 172 -96 227 -151 332 -292 559 -770 1001 -1368
1265 -84 37 -356 132 -408 142 -13 3 -66 14 -118 25 -185 38 -322 53 -541 56
-119 2 -218 2 -220 1z m439 -570 c10 -2 38 -6 63 -10 80 -12 102 -16 174 -32
321 -73 634 -223 899 -432 90 -70 286 -266 358 -357 177 -223 342 -545 404
-785 40 -156 61 -268 72 -380 9 -92 9 -383 0 -465 -7 -69 -37 -246 -43 -255
-2 -4 -7 -20 -9 -37 -21 -119 -110 -354 -191 -508 -66 -125 -64 -121 -124
-210 -287 -428 -723 -750 -1215 -899 -61 -19 -124 -36 -141 -39 -16 -3 -66
-12 -110 -21 -109 -20 -151 -25 -282 -32 l-113 -6 0 2242 0 2242 121 -7 c66
-3 128 -8 137 -9z m-1478 -2046 l0 -780 388 -2 387 -3 1 -178 0 -177 -605 2
-606 3 -1 950 c0 523 1 953 3 958 2 4 101 7 219 7 l214 0 0 -780z"/>
<path d="M3337 3753 c-2 -5 -3 -435 -3 -958 l1 -950 605 0 605 0 1 178 0 177
-388 0 -388 0 0 780 0 780 -214 0 c-118 0 -217 -3 -219 -7z"/>
</g>
</svg>
